<svg width="1348" height="667" viewBox="0 0 1348 667" fill="none" xmlns="http://www.w3.org/2000/svg">
<g opacity="0.25">
<g opacity="0.6">
<mask id="mask0_138_1153" style="mask-type:luminance" maskUnits="userSpaceOnUse" x="480" y="-294" width="961" height="961">
<path d="M480.333 666.667H1441V-294H480.333V666.667Z" fill="white"/>
</mask>
<g mask="url(#mask0_138_1153)">
<path d="M1578.61 -546.348L1873.42 -161.985C1475.47 143.257 1086.86 304.668 1005.45 198.514C924.046 92.38 1180.66 -241.106 1578.61 -546.348Z" fill="url(#paint0_radial_138_1153)"/>
<path d="M1578.61 -596.591L1873.42 -212.228C1475.47 93.0143 1086.86 254.425 1005.45 148.272C924.046 42.1374 1180.66 -291.349 1578.61 -596.591Z" fill="url(#paint1_radial_138_1153)"/>
<path d="M2244.89 -507.268L2320.95 -403.573C1607.16 120.067 1011.47 521.357 990.447 492.71C969.447 464.082 1531.09 16.3727 2244.89 -507.268Z" fill="url(#paint2_radial_138_1153)"/>
<path d="M1780.12 -820.522L1856.18 -716.847C1142.37 -193.207 546.696 208.083 525.677 179.436C504.676 150.808 1066.32 -296.901 1780.12 -820.541V-820.522Z" fill="url(#paint3_radial_138_1153)"/>
<path d="M1715.12 -673.694L1733.37 -648.812C1019.56 -125.172 436.796 293.755 431.762 286.877C426.728 280.018 1001.3 -150.054 1715.12 -673.694Z" fill="url(#paint4_radial_138_1153)"/>
<path d="M1769.45 -583.41L1787.7 -558.529C1073.89 -34.9081 491.15 384.019 486.116 377.141C481.082 370.282 1055.66 -59.7894 1769.47 -583.43L1769.45 -583.41Z" fill="url(#paint5_radial_138_1153)"/>
<path d="M1861.52 -311.369L1879.43 -286.257C1158.79 227.911 570.578 639.134 565.621 632.198C560.664 625.262 1140.87 202.819 1861.52 -311.369Z" fill="url(#paint6_radial_138_1153)"/>
<path d="M1936.13 -221.604L1954.03 -196.492C1233.4 317.676 645.184 728.899 640.226 721.943C635.269 715.007 1215.47 292.564 1936.13 -221.623V-221.604Z" fill="url(#paint7_radial_138_1153)"/>
<path d="M1719.55 -595.034L1737.46 -569.923C1016.83 -55.7354 428.611 355.468 423.673 348.532C418.716 341.596 998.92 -80.8472 1719.57 -595.034H1719.55Z" fill="url(#paint8_radial_138_1153)"/>
<path d="M1979.38 -948.272L1997.63 -923.39C1283.82 -399.75 701.075 19.1774 696.041 12.299C691.007 5.43987 1265.58 -424.631 1979.4 -948.272H1979.38Z" fill="url(#paint9_radial_138_1153)"/>
<path d="M1847.42 -544.33L1923.49 -440.636C1209.69 82.9851 614 484.275 592.981 455.628C571.981 427 1133.62 -20.7092 1847.42 -544.349V-544.33Z" fill="url(#paint10_radial_138_1153)"/>
<path d="M1393.7 -411.24L1503.52 -268.043C945.065 160.319 467.729 475.513 437.411 435.972C407.092 396.431 835.242 17.1216 1393.7 -411.22V-411.24Z" fill="url(#paint11_radial_138_1153)"/>
<path d="M1305.89 -632.424L1868.59 101.238C1470.65 406.48 1022.07 489.712 866.675 287.088C711.297 84.5027 907.945 -327.162 1305.87 -632.424H1305.89Z" fill="url(#paint12_radial_138_1153)"/>
<path opacity="0.4" d="M1501.08 -123.981L1600.68 26.4978C1013.75 414.953 515.667 696.179 488.153 654.62C460.64 613.062 914.17 264.474 1501.08 -123.981Z" fill="url(#paint13_radial_138_1153)"/>
<path opacity="0.4" d="M1739.77 -82.077L1839.37 68.4018C1252.44 456.857 754.334 738.083 726.84 696.524C699.327 654.966 1152.86 306.378 1739.77 -82.077Z" fill="url(#paint14_radial_138_1153)"/>
</g>
</g>
<mask id="mask1_138_1153" style="mask-type:luminance" maskUnits="userSpaceOnUse" x="480" y="-294" width="961" height="961">
<path d="M480.333 666.667H1441V-294H480.333V666.667Z" fill="white"/>
</mask>
<g mask="url(#mask1_138_1153)">
<path d="M1576.84 -121.637L1575.72 -123.212L1366.91 24.4612L1360.38 62.5805L1304.16 102.333L1270 96.4728L1113.99 206.815C1112.24 205.124 1109.49 204.855 1107.44 206.315C1105.11 207.968 1104.56 211.176 1106.21 213.501C1107.86 215.826 1111.07 216.383 1113.39 214.731C1115.45 213.271 1116.12 210.6 1115.1 208.39L1270.48 98.5094L1304.64 104.369L1362.17 63.6949L1368.7 25.5756L1576.88 -121.637H1576.84Z" fill="#3B93D0"/>
<path d="M1615.26 -67.3018L1614.15 -68.8773L1472.74 31.128L1462.63 90.0938L1394.2 138.492L1367.59 133.919L1290.5 188.447L1235.49 179.013L1171.63 224.184C1169.88 222.493 1167.13 222.224 1165.08 223.684C1162.75 225.336 1162.2 228.545 1163.85 230.87C1165.5 233.195 1168.71 233.752 1171.03 232.1C1173.09 230.639 1173.76 227.969 1172.74 225.74L1235.97 181.031L1290.98 190.464L1368.07 135.956L1394.68 140.529L1464.42 91.2082L1474.53 32.2424L1615.3 -67.3018H1615.26Z" fill="#3B93D0"/>
<path d="M1383.51 114.457L1369.6 112.074L1299.28 161.798C1297.8 160.492 1295.59 160.319 1293.92 161.51C1291.96 162.893 1291.5 165.602 1292.88 167.562C1294.27 169.522 1296.98 169.983 1298.94 168.6C1300.63 167.409 1301.2 165.199 1300.42 163.355L1370.06 114.092L1383.97 116.474L1445.84 72.7252L1454.24 23.8273L1604.56 -82.4801L1603.45 -84.0555L1452.49 22.7129L1444.09 71.6109L1383.51 114.437V114.457Z" fill="#3B93D0"/>
<path d="M1014.27 200.685L1233.23 45.8452L1267.39 51.7052L1374.93 -24.3411L1381.46 -62.4604L1539.62 -174.301L1538.51 -175.877L1379.71 -63.5748L1373.18 -25.4555L1266.95 49.6686L1232.79 43.8086L1013.18 199.11C1011.43 197.419 1008.68 197.15 1006.62 198.61C1004.3 200.263 1003.74 203.471 1005.4 205.796C1007.05 208.121 1010.26 208.678 1012.58 207.026C1014.64 205.566 1015.31 202.876 1014.29 200.666L1014.27 200.685Z" fill="#3B93D0"/>
<path d="M1170.15 118.261L1246.33 64.3866L1280.49 70.2467L1388.03 -5.7997L1394.56 -43.9189L1552.73 -155.76L1551.61 -157.335L1392.81 -45.0333L1386.28 -6.91405L1280.05 68.2101L1245.89 62.35L1168.98 116.743C1167.23 115.225 1164.6 115.014 1162.62 116.416C1160.29 118.069 1159.74 121.277 1161.39 123.602C1163.04 125.927 1166.25 126.484 1168.57 124.832C1170.71 123.333 1171.32 120.509 1170.15 118.261Z" fill="#3B93D0"/>
<path d="M1190.21 195.075L1289.23 125.042L1323.4 130.903L1380.92 90.2279L1387.45 52.1087L1595.63 -95.1039L1594.51 -96.6794L1385.68 50.9943L1379.15 89.1135L1322.93 128.866L1288.77 123.006L1189.09 193.5C1187.35 191.809 1184.6 191.54 1182.54 193C1180.22 194.652 1179.66 197.861 1181.31 200.186C1182.96 202.511 1186.17 203.068 1188.5 201.415C1190.55 199.955 1191.23 197.265 1190.21 195.056V195.075Z" fill="#3B93D0"/>
<path d="M1365.93 -149.881L1319.9 -157.778L1166.63 -49.3952L1159.85 -9.83492L1099.6 32.7803C1098.12 31.4161 1095.85 31.224 1094.16 32.4344C1092.2 33.8178 1091.74 36.5269 1093.12 38.4867C1094.51 40.4464 1097.22 40.9075 1099.18 39.5241C1100.85 38.3329 1101.42 36.181 1100.69 34.3557L1161.62 -8.73975L1168.4 -48.3L1320.36 -155.76L1366.39 -147.863L1494.34 -238.339L1493.22 -239.915L1365.93 -149.9V-149.881Z" fill="#3B93D0"/>
<path d="M1375.12 -134.126L1329.08 -142.023L1175.82 -33.6402L1169.04 5.92001L1108.78 48.5352C1107.3 47.171 1105.04 46.9789 1103.34 48.1893C1101.39 49.5727 1100.92 52.2818 1102.31 54.2415C1103.69 56.2013 1106.4 56.6624 1108.36 55.2791C1110.03 54.0878 1110.61 51.9359 1109.88 50.1107L1170.8 7.01519L1177.59 -32.5451L1329.54 -140.005L1375.58 -132.109L1503.52 -222.584L1502.41 -224.16L1375.12 -134.145V-134.126Z" fill="#3B93D0"/>
<path d="M921.625 34.2404L1120.79 -106.593L1174.57 -143.329L1178.14 -167.538L1380.82 -312.272L1379.71 -313.848L1176.34 -168.633L1172.8 -144.463L1119.02 -107.727L920.472 32.6842C918.993 31.4161 916.803 31.2432 915.131 32.4152C913.171 33.7986 912.71 36.5076 914.094 38.4674C915.477 40.4272 918.186 40.8883 920.146 39.5049C921.856 38.2945 922.432 36.0657 921.625 34.2213V34.2404Z" fill="#3B93D0"/>
<path d="M955.902 -1.13114L1155.07 -141.965L1164.14 -194.821L1229.61 -241.125L1257.67 -236.322L1415.08 -347.644L1413.97 -349.219L1257.19 -238.358L1229.13 -243.161L1162.35 -195.935L1153.28 -143.079L954.73 -2.66819C953.25 -3.93627 951.06 -4.10916 949.389 -2.93714C947.429 -1.55378 946.968 1.15529 948.351 3.11505C949.734 5.07481 952.443 5.53588 954.403 4.15252C956.113 2.94208 956.69 0.713337 955.883 -1.13114H955.902Z" fill="#3B93D0"/>
<path d="M874.091 152.902L1141.96 -36.5222L1148.75 -76.0825L1300.7 -183.543L1346.72 -175.646L1474.66 -266.122L1473.55 -267.697L1346.26 -177.683L1300.22 -185.579L1146.96 -77.1969L1140.18 -37.6366L872.9 151.384C871.421 150.174 869.269 150.02 867.636 151.173C865.676 152.556 865.215 155.265 866.598 157.225C867.982 159.185 870.691 159.646 872.65 158.263C874.399 157.033 874.937 154.766 874.072 152.902H874.091Z" fill="#3B93D0"/>
<path d="M966.853 206.2L1257.74 0.502167L1266.81 -52.3537L1332.29 -98.6578L1360.34 -93.8545L1517.76 -205.177L1516.64 -206.752L1359.86 -95.8911L1331.81 -100.694L1265.02 -53.4681L1255.96 -0.612183L965.797 204.586C964.317 203.145 961.992 202.915 960.263 204.144C958.303 205.528 957.842 208.237 959.226 210.197C960.609 212.156 963.318 212.617 965.278 211.234C966.911 210.081 967.487 208.006 966.834 206.2H966.853Z" fill="#3B93D0"/>
<path d="M1523.41 311.892L1590.19 264.666L1594.99 236.615L1751.78 125.754L1750.66 124.178L1593.25 235.5L1588.44 263.552L1522.96 309.856L1470.11 300.787L1343.49 390.321C1342.01 388.938 1339.73 388.727 1338.02 389.937C1336.06 391.32 1335.6 394.03 1336.98 395.989C1338.36 397.949 1341.07 398.41 1343.03 397.027C1344.7 395.855 1345.26 393.722 1344.55 391.916L1470.57 302.805L1523.43 311.873L1523.41 311.892Z" fill="#3B93D0"/>
<path d="M1655.67 -10.1807L1654.56 -11.7562L1497.12 99.5659L1492.32 127.617L1426.84 173.922L1373.98 164.853L1175.09 305.514C1173.61 304.303 1171.46 304.149 1169.82 305.302C1167.86 306.686 1167.4 309.395 1168.79 311.354C1170.17 313.314 1172.88 313.775 1174.84 312.392C1176.59 311.162 1177.12 308.895 1176.26 307.031L1374.44 166.889L1427.3 175.958L1494.09 128.732L1498.89 100.68L1655.67 -10.1807Z" fill="#3B93D0"/>
<path d="M1657.94 1.96216L1656.82 0.386627L1499.41 111.709L1494.61 139.76L1429.13 186.064L1376.27 176.996L1144.02 340.924C1142.54 339.713 1140.39 339.56 1138.76 340.712C1136.8 342.096 1136.33 344.805 1137.72 346.765C1139.1 348.724 1141.81 349.185 1143.77 347.802C1145.52 346.572 1146.06 344.305 1145.19 342.442L1376.73 179.032L1429.59 188.101L1496.37 140.874L1501.18 112.823L1657.96 1.96216H1657.94Z" fill="#3B93D0"/>
<path d="M1679.09 22.962L1677.98 21.3865L1566.42 100.276L1558.53 146.312L1395.21 261.803L1355.65 255.021L1289.68 301.671C1288.2 300.364 1285.99 300.191 1284.32 301.382C1282.36 302.766 1281.89 305.475 1283.28 307.435C1284.66 309.394 1287.37 309.856 1289.33 308.472C1291.02 307.281 1291.6 305.071 1290.81 303.227L1356.12 257.038L1395.68 263.82L1560.28 147.426L1568.17 101.391L1679.07 22.962H1679.09Z" fill="#3B93D0"/>
<path d="M1698.77 50.7641L1697.65 49.1886L1586.1 128.079L1578.2 174.114L1414.91 289.605L1375.35 282.823L1275.53 353.413C1274.07 351.972 1271.75 351.741 1270 352.971C1268.04 354.354 1267.58 357.063 1268.96 359.023C1270.35 360.983 1273.06 361.444 1275.02 360.06C1276.65 358.908 1277.23 356.833 1276.57 355.026L1375.81 284.84L1415.37 291.622L1579.97 175.228L1587.87 129.193L1698.77 50.7641Z" fill="#3B93D0"/>
</g>
<mask id="mask2_138_1153" style="mask-type:luminance" maskUnits="userSpaceOnUse" x="240" y="-294" width="1201" height="961">
<path d="M240.167 666.667H1441V-294H240.167V666.667Z" fill="white"/>
</mask>
<g mask="url(#mask2_138_1153)">
<path style="mix-blend-mode:soft-light" d="M906.178 207.622C906.178 176.112 931.731 150.558 963.241 150.558C994.751 150.558 1020.3 176.112 1020.3 207.622C1020.3 239.132 994.77 264.685 963.241 264.685C931.712 264.685 906.178 239.132 906.178 207.622Z" fill="url(#paint15_radial_138_1153)"/>
<path style="mix-blend-mode:soft-light" d="M846.808 207.987C846.808 143.181 899.376 90.6129 964.202 90.6129C1029.03 90.6129 1081.58 143.161 1081.58 207.987C1081.58 272.813 1029.03 325.361 964.202 325.361C899.376 325.361 846.808 272.813 846.808 207.987Z" fill="url(#paint16_radial_138_1153)"/>
<path style="mix-blend-mode:soft-light" d="M1315.88 326.495C1315.88 290.316 1345.22 260.997 1381.38 260.997C1417.54 260.997 1446.88 290.316 1446.88 326.495C1446.88 362.674 1417.56 391.993 1381.38 391.993C1345.2 391.993 1315.88 362.674 1315.88 326.495Z" fill="url(#paint17_radial_138_1153)"/>
<path style="mix-blend-mode:soft-light" d="M1330.95 326.495C1330.95 298.635 1353.54 276.04 1381.4 276.04C1409.26 276.04 1431.85 298.635 1431.85 326.495C1431.85 354.354 1409.28 376.949 1381.4 376.949C1353.52 376.949 1330.95 354.373 1330.95 326.495Z" fill="url(#paint18_radial_138_1153)"/>
<path style="mix-blend-mode:soft-light" d="M775.277 -37.5981C775.277 -73.7768 804.616 -103.096 840.775 -103.096C876.935 -103.096 906.274 -73.7768 906.274 -37.5981C906.274 -1.41937 876.954 27.9002 840.775 27.9002C804.597 27.9002 775.277 -1.41937 775.277 -37.5981Z" fill="url(#paint19_radial_138_1153)"/>
<path style="mix-blend-mode:soft-light" d="M789.553 -37.5978C789.553 -67.0134 813.396 -90.8379 842.812 -90.8379C872.228 -90.8379 896.052 -66.9942 896.052 -37.5978C896.052 -8.20137 872.208 15.6616 842.812 15.6616C813.416 15.6616 789.553 -8.18216 789.553 -37.5978Z" fill="url(#paint20_radial_138_1153)"/>
<path style="mix-blend-mode:soft-light" d="M1244.08 165.314C1244.08 135.898 1267.93 112.074 1297.34 112.074C1326.76 112.074 1350.58 135.918 1350.58 165.314C1350.58 194.71 1326.74 218.573 1297.34 218.573C1267.95 218.573 1244.08 194.73 1244.08 165.314Z" fill="url(#paint21_radial_138_1153)"/>
<path style="mix-blend-mode:soft-light" d="M1264.74 165.314C1264.74 147.311 1279.34 132.728 1297.34 132.728C1315.34 132.728 1329.95 147.33 1329.95 165.314C1329.95 183.298 1315.34 197.919 1297.34 197.919C1279.34 197.919 1264.74 183.317 1264.74 165.314Z" fill="url(#paint22_radial_138_1153)"/>
<path style="mix-blend-mode:soft-light" d="M1043.53 -59.5587C1043.53 -95.7374 1072.87 -125.057 1109.03 -125.057C1145.19 -125.057 1174.53 -95.7374 1174.53 -59.5587C1174.53 -23.38 1145.21 5.93958 1109.03 5.93958C1072.85 5.93958 1043.53 -23.38 1043.53 -59.5587Z" fill="url(#paint23_radial_138_1153)"/>
<path style="mix-blend-mode:soft-light" d="M1111.76 121.604C1111.76 90.0939 1137.31 64.5402 1168.82 64.5402C1200.33 64.5402 1225.89 90.0939 1225.89 121.604C1225.89 153.114 1200.35 178.667 1168.82 178.667C1137.29 178.667 1111.76 153.114 1111.76 121.604Z" fill="url(#paint24_radial_138_1153)"/>
<path style="mix-blend-mode:color-dodge" d="M916.63 207.622C916.63 181.357 937.937 160.05 964.202 160.05C990.466 160.05 1011.77 181.338 1011.77 207.622C1011.77 233.906 990.486 255.194 964.202 255.194C937.918 255.194 916.63 233.906 916.63 207.622Z" fill="url(#paint25_radial_138_1153)"/>
<path style="mix-blend-mode:color-dodge" d="M1064.76 212.175C1064.76 185.911 1086.07 164.603 1112.34 164.603C1138.6 164.603 1159.91 185.911 1159.91 212.175C1159.91 238.44 1138.62 259.747 1112.34 259.747C1086.05 259.747 1064.76 238.459 1064.76 212.175Z" fill="url(#paint26_radial_138_1153)"/>
</g>
<g opacity="0.6">
<mask id="mask3_138_1153" style="mask-type:luminance" maskUnits="userSpaceOnUse" x="0" y="-134" width="1330" height="801">
<path d="M6.10352e-05 666.667H1329.41V-133.914H6.10352e-05V666.667Z" fill="white"/>
</mask>
<g mask="url(#mask3_138_1153)">
<path style="mix-blend-mode:soft-light" d="M554.42 367.707C554.42 336.197 579.974 310.644 611.484 310.644C642.993 310.644 668.547 336.197 668.547 367.707C668.547 399.217 643.013 424.771 611.484 424.771C579.955 424.771 554.42 399.217 554.42 367.707Z" fill="url(#paint27_radial_138_1153)"/>
<path style="mix-blend-mode:soft-light" d="M964.144 486.58C964.144 450.402 993.483 421.082 1029.64 421.082C1065.8 421.082 1095.14 450.402 1095.14 486.58C1095.14 522.759 1065.82 552.079 1029.64 552.079C993.464 552.079 964.144 522.759 964.144 486.58Z" fill="url(#paint28_radial_138_1153)"/>
<path style="mix-blend-mode:soft-light" d="M979.189 486.58C979.189 458.721 1001.78 436.126 1029.64 436.126C1057.5 436.126 1080.1 458.721 1080.1 486.58C1080.1 514.439 1057.52 537.034 1029.64 537.034C1001.76 537.034 979.189 514.459 979.189 486.58Z" fill="url(#paint29_radial_138_1153)"/>
<path style="mix-blend-mode:soft-light" d="M423.52 122.487C423.52 86.3088 452.858 56.9892 489.018 56.9892C525.177 56.9892 554.516 86.3088 554.516 122.487C554.516 158.666 525.197 187.986 489.018 187.986C452.839 187.986 423.52 158.666 423.52 122.487Z" fill="url(#paint30_radial_138_1153)"/>
<path style="mix-blend-mode:soft-light" d="M437.814 122.487C437.814 93.0718 461.658 69.2472 491.074 69.2472C520.489 69.2472 544.314 93.091 544.314 122.487C544.314 151.884 520.47 175.747 491.074 175.747C461.677 175.747 437.814 151.903 437.814 122.487Z" fill="url(#paint31_radial_138_1153)"/>
<path style="mix-blend-mode:soft-light" d="M892.344 325.4C892.344 295.984 916.188 272.159 945.603 272.159C975.019 272.159 998.844 296.003 998.844 325.4C998.844 354.796 975 378.659 945.603 378.659C916.207 378.659 892.344 354.815 892.344 325.4Z" fill="url(#paint32_radial_138_1153)"/>
<path style="mix-blend-mode:soft-light" d="M912.999 325.4C912.999 307.397 927.601 292.814 945.604 292.814C963.606 292.814 978.209 307.416 978.209 325.4C978.209 343.383 963.606 358.005 945.604 358.005C927.601 358.005 912.999 343.403 912.999 325.4Z" fill="url(#paint33_radial_138_1153)"/>
<path style="mix-blend-mode:soft-light" d="M691.795 100.527C691.795 64.3482 721.134 35.0287 757.294 35.0287C793.453 35.0287 822.792 64.3482 822.792 100.527C822.792 136.706 793.472 166.025 757.294 166.025C721.115 166.025 691.795 136.706 691.795 100.527Z" fill="url(#paint34_radial_138_1153)"/>
<path style="mix-blend-mode:soft-light" d="M760.022 281.689C760.022 250.179 785.576 224.626 817.086 224.626C848.595 224.626 874.149 250.179 874.149 281.689C874.149 313.199 848.615 338.753 817.086 338.753C785.556 338.753 760.022 313.199 760.022 281.689Z" fill="url(#paint35_radial_138_1153)"/>
<path style="mix-blend-mode:color-dodge" d="M548.963 7.09238C548.963 -19.1723 570.271 -40.4799 596.536 -40.4799C622.8 -40.4799 644.108 -19.1915 644.108 7.09238C644.108 33.3762 622.819 54.6646 596.536 54.6646C570.252 54.6646 548.963 33.3762 548.963 7.09238Z" fill="url(#paint36_radial_138_1153)"/>
<path style="mix-blend-mode:color-dodge" d="M713.007 372.261C713.007 345.996 734.314 324.689 760.579 324.689C786.844 324.689 808.151 345.996 808.151 372.261C808.151 398.525 786.863 419.833 760.579 419.833C734.295 419.833 713.007 398.545 713.007 372.261Z" fill="url(#paint37_radial_138_1153)"/>
</g>
</g>
</g>
<defs>
<radialGradient id="paint0_radial_138_1153" cx="0" cy="0" r="1" gradientUnits="userSpaceOnUse" gradientTransform="translate(1723.37 -358.302) rotate(-127.49) scale(204.933 1011.95)">
<stop stop-color="#93FFFF"/>
<stop offset="0.09" stop-color="#93FFFF" stop-opacity="0.79"/>
<stop offset="0.17" stop-color="#93FFFF" stop-opacity="0.61"/>
<stop offset="0.26" stop-color="#93FFFF" stop-opacity="0.45"/>
<stop offset="0.36" stop-color="#93FFFF" stop-opacity="0.31"/>
<stop offset="0.46" stop-color="#93FFFF" stop-opacity="0.2"/>
<stop offset="0.56" stop-color="#93FFFF" stop-opacity="0.11"/>
<stop offset="0.68" stop-color="#93FFFF" stop-opacity="0.05"/>
<stop offset="0.81" stop-color="#93FFFF" stop-opacity="0.01"/>
<stop offset="1" stop-color="#93FFFF" stop-opacity="0"/>
</radialGradient>
<radialGradient id="paint1_radial_138_1153" cx="0" cy="0" r="1" gradientUnits="userSpaceOnUse" gradientTransform="translate(1723.37 -408.595) rotate(-127.49) scale(204.933 1011.95)">
<stop stop-color="#C7EAFF"/>
<stop offset="0.09" stop-color="#C7EAFF" stop-opacity="0.79"/>
<stop offset="0.17" stop-color="#C7EAFF" stop-opacity="0.61"/>
<stop offset="0.26" stop-color="#C7EAFF" stop-opacity="0.45"/>
<stop offset="0.36" stop-color="#C7EAFF" stop-opacity="0.31"/>
<stop offset="0.46" stop-color="#C7EAFF" stop-opacity="0.2"/>
<stop offset="0.56" stop-color="#C7EAFF" stop-opacity="0.11"/>
<stop offset="0.68" stop-color="#C7EAFF" stop-opacity="0.05"/>
<stop offset="0.81" stop-color="#C7EAFF" stop-opacity="0.01"/>
<stop offset="1" stop-color="#C7EAFF" stop-opacity="0"/>
</radialGradient>
<radialGradient id="paint2_radial_138_1153" cx="0" cy="0" r="1" gradientUnits="userSpaceOnUse" gradientTransform="translate(2282.74 -456.096) rotate(-126.27) scale(53.7067 1786.45)">
<stop stop-color="#ADFFFF"/>
<stop offset="0.09" stop-color="#ADFFFF" stop-opacity="0.79"/>
<stop offset="0.17" stop-color="#ADFFFF" stop-opacity="0.61"/>
<stop offset="0.26" stop-color="#ADFFFF" stop-opacity="0.45"/>
<stop offset="0.36" stop-color="#ADFFFF" stop-opacity="0.31"/>
<stop offset="0.46" stop-color="#ADFFFF" stop-opacity="0.2"/>
<stop offset="0.56" stop-color="#ADFFFF" stop-opacity="0.11"/>
<stop offset="0.68" stop-color="#ADFFFF" stop-opacity="0.05"/>
<stop offset="0.81" stop-color="#ADFFFF" stop-opacity="0.01"/>
<stop offset="1" stop-color="#ADFFFF" stop-opacity="0"/>
</radialGradient>
<radialGradient id="paint3_radial_138_1153" cx="0" cy="0" r="1" gradientUnits="userSpaceOnUse" gradientTransform="translate(1821.71 -764.228) rotate(-126.27) scale(53.7067 1786.45)">
<stop stop-color="#ADFFFF"/>
<stop offset="0.09" stop-color="#ADFFFF" stop-opacity="0.79"/>
<stop offset="0.17" stop-color="#ADFFFF" stop-opacity="0.61"/>
<stop offset="0.26" stop-color="#ADFFFF" stop-opacity="0.45"/>
<stop offset="0.36" stop-color="#ADFFFF" stop-opacity="0.31"/>
<stop offset="0.46" stop-color="#ADFFFF" stop-opacity="0.2"/>
<stop offset="0.56" stop-color="#ADFFFF" stop-opacity="0.11"/>
<stop offset="0.68" stop-color="#ADFFFF" stop-opacity="0.05"/>
<stop offset="0.81" stop-color="#ADFFFF" stop-opacity="0.01"/>
<stop offset="1" stop-color="#ADFFFF" stop-opacity="0"/>
</radialGradient>
<radialGradient id="paint4_radial_138_1153" cx="0" cy="0" r="1" gradientUnits="userSpaceOnUse" gradientTransform="translate(1739.64 -641.004) rotate(-126.27) scale(12.7183 1786.21)">
<stop stop-color="#ADFFFF"/>
<stop offset="0.09" stop-color="#ADFFFF" stop-opacity="0.79"/>
<stop offset="0.17" stop-color="#ADFFFF" stop-opacity="0.61"/>
<stop offset="0.26" stop-color="#ADFFFF" stop-opacity="0.45"/>
<stop offset="0.36" stop-color="#ADFFFF" stop-opacity="0.31"/>
<stop offset="0.46" stop-color="#ADFFFF" stop-opacity="0.2"/>
<stop offset="0.56" stop-color="#ADFFFF" stop-opacity="0.11"/>
<stop offset="0.68" stop-color="#ADFFFF" stop-opacity="0.05"/>
<stop offset="0.81" stop-color="#ADFFFF" stop-opacity="0.01"/>
<stop offset="1" stop-color="#ADFFFF" stop-opacity="0"/>
</radialGradient>
<radialGradient id="paint5_radial_138_1153" cx="0" cy="0" r="1" gradientUnits="userSpaceOnUse" gradientTransform="translate(1792.53 -552.878) rotate(-126.27) scale(12.7183 1786.21)">
<stop stop-color="#ADFFFF"/>
<stop offset="0.09" stop-color="#ADFFFF" stop-opacity="0.79"/>
<stop offset="0.17" stop-color="#ADFFFF" stop-opacity="0.61"/>
<stop offset="0.26" stop-color="#ADFFFF" stop-opacity="0.45"/>
<stop offset="0.36" stop-color="#ADFFFF" stop-opacity="0.31"/>
<stop offset="0.46" stop-color="#ADFFFF" stop-opacity="0.2"/>
<stop offset="0.56" stop-color="#ADFFFF" stop-opacity="0.11"/>
<stop offset="0.68" stop-color="#ADFFFF" stop-opacity="0.05"/>
<stop offset="0.81" stop-color="#ADFFFF" stop-opacity="0.01"/>
<stop offset="1" stop-color="#ADFFFF" stop-opacity="0"/>
</radialGradient>
<radialGradient id="paint6_radial_138_1153" cx="0" cy="0" r="1" gradientUnits="userSpaceOnUse" gradientTransform="translate(1880.28 -285.745) rotate(-125.52) scale(12.72 1786.45)">
<stop stop-color="#ADFFFF"/>
<stop offset="0.09" stop-color="#ADFFFF" stop-opacity="0.79"/>
<stop offset="0.17" stop-color="#ADFFFF" stop-opacity="0.61"/>
<stop offset="0.26" stop-color="#ADFFFF" stop-opacity="0.45"/>
<stop offset="0.36" stop-color="#ADFFFF" stop-opacity="0.31"/>
<stop offset="0.46" stop-color="#ADFFFF" stop-opacity="0.2"/>
<stop offset="0.56" stop-color="#ADFFFF" stop-opacity="0.11"/>
<stop offset="0.68" stop-color="#ADFFFF" stop-opacity="0.05"/>
<stop offset="0.81" stop-color="#ADFFFF" stop-opacity="0.01"/>
<stop offset="1" stop-color="#ADFFFF" stop-opacity="0"/>
</radialGradient>
<radialGradient id="paint7_radial_138_1153" cx="0" cy="0" r="1" gradientUnits="userSpaceOnUse" gradientTransform="translate(1953.34 -198.392) rotate(-125.52) scale(12.72 1786.45)">
<stop stop-color="#ADFFFF"/>
<stop offset="0.09" stop-color="#ADFFFF" stop-opacity="0.79"/>
<stop offset="0.17" stop-color="#ADFFFF" stop-opacity="0.61"/>
<stop offset="0.26" stop-color="#ADFFFF" stop-opacity="0.45"/>
<stop offset="0.36" stop-color="#ADFFFF" stop-opacity="0.31"/>
<stop offset="0.46" stop-color="#ADFFFF" stop-opacity="0.2"/>
<stop offset="0.56" stop-color="#ADFFFF" stop-opacity="0.11"/>
<stop offset="0.68" stop-color="#ADFFFF" stop-opacity="0.05"/>
<stop offset="0.81" stop-color="#ADFFFF" stop-opacity="0.01"/>
<stop offset="1" stop-color="#ADFFFF" stop-opacity="0"/>
</radialGradient>
<radialGradient id="paint8_radial_138_1153" cx="0" cy="0" r="1" gradientUnits="userSpaceOnUse" gradientTransform="translate(1742.86 -563.213) rotate(-125.52) scale(12.72 1786.45)">
<stop stop-color="#ADFFFF"/>
<stop offset="0.09" stop-color="#ADFFFF" stop-opacity="0.79"/>
<stop offset="0.17" stop-color="#ADFFFF" stop-opacity="0.61"/>
<stop offset="0.26" stop-color="#ADFFFF" stop-opacity="0.45"/>
<stop offset="0.36" stop-color="#ADFFFF" stop-opacity="0.31"/>
<stop offset="0.46" stop-color="#ADFFFF" stop-opacity="0.2"/>
<stop offset="0.56" stop-color="#ADFFFF" stop-opacity="0.11"/>
<stop offset="0.68" stop-color="#ADFFFF" stop-opacity="0.05"/>
<stop offset="0.81" stop-color="#ADFFFF" stop-opacity="0.01"/>
<stop offset="1" stop-color="#ADFFFF" stop-opacity="0"/>
</radialGradient>
<radialGradient id="paint9_radial_138_1153" cx="0" cy="0" r="1" gradientUnits="userSpaceOnUse" gradientTransform="translate(2004.76 -914.337) rotate(-126.27) scale(12.7183 1786.21)">
<stop stop-color="#ADFFFF"/>
<stop offset="0.09" stop-color="#ADFFFF" stop-opacity="0.79"/>
<stop offset="0.17" stop-color="#ADFFFF" stop-opacity="0.61"/>
<stop offset="0.26" stop-color="#ADFFFF" stop-opacity="0.45"/>
<stop offset="0.36" stop-color="#ADFFFF" stop-opacity="0.31"/>
<stop offset="0.46" stop-color="#ADFFFF" stop-opacity="0.2"/>
<stop offset="0.56" stop-color="#ADFFFF" stop-opacity="0.11"/>
<stop offset="0.68" stop-color="#ADFFFF" stop-opacity="0.05"/>
<stop offset="0.81" stop-color="#ADFFFF" stop-opacity="0.01"/>
<stop offset="1" stop-color="#ADFFFF" stop-opacity="0"/>
</radialGradient>
<radialGradient id="paint10_radial_138_1153" cx="0" cy="0" r="1" gradientUnits="userSpaceOnUse" gradientTransform="translate(1887.31 -490.642) rotate(-126.27) scale(53.7067 1786.45)">
<stop stop-color="#ADFFFF"/>
<stop offset="0.09" stop-color="#ADFFFF" stop-opacity="0.79"/>
<stop offset="0.17" stop-color="#ADFFFF" stop-opacity="0.61"/>
<stop offset="0.26" stop-color="#ADFFFF" stop-opacity="0.45"/>
<stop offset="0.36" stop-color="#ADFFFF" stop-opacity="0.31"/>
<stop offset="0.46" stop-color="#ADFFFF" stop-opacity="0.2"/>
<stop offset="0.56" stop-color="#ADFFFF" stop-opacity="0.11"/>
<stop offset="0.68" stop-color="#ADFFFF" stop-opacity="0.05"/>
<stop offset="0.81" stop-color="#ADFFFF" stop-opacity="0.01"/>
<stop offset="1" stop-color="#ADFFFF" stop-opacity="0"/>
</radialGradient>
<radialGradient id="paint11_radial_138_1153" cx="0" cy="0" r="1" gradientUnits="userSpaceOnUse" gradientTransform="translate(1451.01 -337.292) rotate(-127.49) scale(75.3616 1419.97)">
<stop stop-color="#93FFFF"/>
<stop offset="0.09" stop-color="#93FFFF" stop-opacity="0.79"/>
<stop offset="0.17" stop-color="#93FFFF" stop-opacity="0.61"/>
<stop offset="0.26" stop-color="#93FFFF" stop-opacity="0.45"/>
<stop offset="0.36" stop-color="#93FFFF" stop-opacity="0.31"/>
<stop offset="0.46" stop-color="#93FFFF" stop-opacity="0.2"/>
<stop offset="0.56" stop-color="#93FFFF" stop-opacity="0.11"/>
<stop offset="0.68" stop-color="#93FFFF" stop-opacity="0.05"/>
<stop offset="0.81" stop-color="#93FFFF" stop-opacity="0.01"/>
<stop offset="1" stop-color="#93FFFF" stop-opacity="0"/>
</radialGradient>
<radialGradient id="paint12_radial_138_1153" cx="0" cy="0" r="1" gradientUnits="userSpaceOnUse" gradientTransform="translate(1584.85 -269.803) rotate(-127.49) scale(391.493 1011.95)">
<stop stop-color="#C7EAFF"/>
<stop offset="0.09" stop-color="#C7EAFF" stop-opacity="0.79"/>
<stop offset="0.17" stop-color="#C7EAFF" stop-opacity="0.61"/>
<stop offset="0.26" stop-color="#C7EAFF" stop-opacity="0.45"/>
<stop offset="0.36" stop-color="#C7EAFF" stop-opacity="0.31"/>
<stop offset="0.46" stop-color="#C7EAFF" stop-opacity="0.2"/>
<stop offset="0.56" stop-color="#C7EAFF" stop-opacity="0.11"/>
<stop offset="0.68" stop-color="#C7EAFF" stop-opacity="0.05"/>
<stop offset="0.81" stop-color="#C7EAFF" stop-opacity="0.01"/>
<stop offset="1" stop-color="#C7EAFF" stop-opacity="0"/>
</radialGradient>
<radialGradient id="paint13_radial_138_1153" cx="0" cy="0" r="1" gradientUnits="userSpaceOnUse" gradientTransform="translate(1551.69 -48.842) rotate(-123.5) scale(75.3689 1420.11)">
<stop stop-color="#93FFFF"/>
<stop offset="0.09" stop-color="#93FFFF" stop-opacity="0.79"/>
<stop offset="0.17" stop-color="#93FFFF" stop-opacity="0.61"/>
<stop offset="0.26" stop-color="#93FFFF" stop-opacity="0.45"/>
<stop offset="0.36" stop-color="#93FFFF" stop-opacity="0.31"/>
<stop offset="0.46" stop-color="#93FFFF" stop-opacity="0.2"/>
<stop offset="0.56" stop-color="#93FFFF" stop-opacity="0.11"/>
<stop offset="0.68" stop-color="#93FFFF" stop-opacity="0.05"/>
<stop offset="0.81" stop-color="#93FFFF" stop-opacity="0.01"/>
<stop offset="1" stop-color="#93FFFF" stop-opacity="0"/>
</radialGradient>
<radialGradient id="paint14_radial_138_1153" cx="0" cy="0" r="1" gradientUnits="userSpaceOnUse" gradientTransform="translate(1789.07 -8.49073) rotate(-123.5) scale(75.3689 1420.11)">
<stop stop-color="#93FFFF"/>
<stop offset="0.09" stop-color="#93FFFF" stop-opacity="0.79"/>
<stop offset="0.17" stop-color="#93FFFF" stop-opacity="0.61"/>
<stop offset="0.26" stop-color="#93FFFF" stop-opacity="0.45"/>
<stop offset="0.36" stop-color="#93FFFF" stop-opacity="0.31"/>
<stop offset="0.46" stop-color="#93FFFF" stop-opacity="0.2"/>
<stop offset="0.56" stop-color="#93FFFF" stop-opacity="0.11"/>
<stop offset="0.68" stop-color="#93FFFF" stop-opacity="0.05"/>
<stop offset="0.81" stop-color="#93FFFF" stop-opacity="0.01"/>
<stop offset="1" stop-color="#93FFFF" stop-opacity="0"/>
</radialGradient>
<radialGradient id="paint15_radial_138_1153" cx="0" cy="0" r="1" gradientUnits="userSpaceOnUse" gradientTransform="translate(962.569 206.969) rotate(180) scale(48.2447 48.2447)">
<stop stop-color="#C7EAFF"/>
<stop offset="0.04" stop-color="#C7EAFF" stop-opacity="0.79"/>
<stop offset="0.09" stop-color="#C7EAFF" stop-opacity="0.61"/>
<stop offset="0.13" stop-color="#C7EAFF" stop-opacity="0.45"/>
<stop offset="0.18" stop-color="#C7EAFF" stop-opacity="0.31"/>
<stop offset="0.23" stop-color="#C7EAFF" stop-opacity="0.2"/>
<stop offset="0.29" stop-color="#C7EAFF" stop-opacity="0.11"/>
<stop offset="0.34" stop-color="#C7EAFF" stop-opacity="0.05"/>
<stop offset="0.41" stop-color="#C7EAFF" stop-opacity="0.01"/>
<stop offset="0.51" stop-color="#C7EAFF" stop-opacity="0"/>
</radialGradient>
<radialGradient id="paint16_radial_138_1153" cx="0" cy="0" r="1" gradientUnits="userSpaceOnUse" gradientTransform="translate(962.838 206.623) rotate(180) scale(99.2369 99.2369)">
<stop stop-color="#C7EAFF"/>
<stop offset="0.04" stop-color="#C7EAFF" stop-opacity="0.79"/>
<stop offset="0.09" stop-color="#C7EAFF" stop-opacity="0.61"/>
<stop offset="0.13" stop-color="#C7EAFF" stop-opacity="0.45"/>
<stop offset="0.18" stop-color="#C7EAFF" stop-opacity="0.31"/>
<stop offset="0.23" stop-color="#C7EAFF" stop-opacity="0.2"/>
<stop offset="0.29" stop-color="#C7EAFF" stop-opacity="0.11"/>
<stop offset="0.34" stop-color="#C7EAFF" stop-opacity="0.05"/>
<stop offset="0.41" stop-color="#C7EAFF" stop-opacity="0.01"/>
<stop offset="0.51" stop-color="#C7EAFF" stop-opacity="0"/>
</radialGradient>
<radialGradient id="paint17_radial_138_1153" cx="0" cy="0" r="1" gradientUnits="userSpaceOnUse" gradientTransform="translate(1380.63 325.746) rotate(180) scale(55.3728 55.3728)">
<stop stop-color="#C7EAFF"/>
<stop offset="0.04" stop-color="#C7EAFF" stop-opacity="0.79"/>
<stop offset="0.09" stop-color="#C7EAFF" stop-opacity="0.61"/>
<stop offset="0.13" stop-color="#C7EAFF" stop-opacity="0.45"/>
<stop offset="0.18" stop-color="#C7EAFF" stop-opacity="0.31"/>
<stop offset="0.23" stop-color="#C7EAFF" stop-opacity="0.2"/>
<stop offset="0.29" stop-color="#C7EAFF" stop-opacity="0.11"/>
<stop offset="0.34" stop-color="#C7EAFF" stop-opacity="0.05"/>
<stop offset="0.41" stop-color="#C7EAFF" stop-opacity="0.01"/>
<stop offset="0.51" stop-color="#C7EAFF" stop-opacity="0"/>
</radialGradient>
<radialGradient id="paint18_radial_138_1153" cx="0" cy="0" r="1" gradientUnits="userSpaceOnUse" gradientTransform="translate(1380.8 325.918) rotate(180) scale(42.6536 42.6536)">
<stop stop-color="#C7EAFF"/>
<stop offset="0.04" stop-color="#C7EAFF" stop-opacity="0.79"/>
<stop offset="0.09" stop-color="#C7EAFF" stop-opacity="0.61"/>
<stop offset="0.13" stop-color="#C7EAFF" stop-opacity="0.45"/>
<stop offset="0.18" stop-color="#C7EAFF" stop-opacity="0.31"/>
<stop offset="0.23" stop-color="#C7EAFF" stop-opacity="0.2"/>
<stop offset="0.29" stop-color="#C7EAFF" stop-opacity="0.11"/>
<stop offset="0.34" stop-color="#C7EAFF" stop-opacity="0.05"/>
<stop offset="0.41" stop-color="#C7EAFF" stop-opacity="0.01"/>
<stop offset="0.51" stop-color="#C7EAFF" stop-opacity="0"/>
</radialGradient>
<radialGradient id="paint19_radial_138_1153" cx="0" cy="0" r="1" gradientUnits="userSpaceOnUse" gradientTransform="translate(840.007 -38.3474) rotate(180) scale(55.3728)">
<stop stop-color="#C7EAFF"/>
<stop offset="0.04" stop-color="#C7EAFF" stop-opacity="0.79"/>
<stop offset="0.09" stop-color="#C7EAFF" stop-opacity="0.61"/>
<stop offset="0.13" stop-color="#C7EAFF" stop-opacity="0.45"/>
<stop offset="0.18" stop-color="#C7EAFF" stop-opacity="0.31"/>
<stop offset="0.23" stop-color="#C7EAFF" stop-opacity="0.2"/>
<stop offset="0.29" stop-color="#C7EAFF" stop-opacity="0.11"/>
<stop offset="0.34" stop-color="#C7EAFF" stop-opacity="0.05"/>
<stop offset="0.41" stop-color="#C7EAFF" stop-opacity="0.01"/>
<stop offset="0.51" stop-color="#C7EAFF" stop-opacity="0"/>
</radialGradient>
<radialGradient id="paint20_radial_138_1153" cx="0" cy="0" r="1" gradientUnits="userSpaceOnUse" gradientTransform="translate(842.197 -38.2126) rotate(180) scale(45.0168)">
<stop stop-color="#C7EAFF"/>
<stop offset="0.04" stop-color="#C7EAFF" stop-opacity="0.79"/>
<stop offset="0.09" stop-color="#C7EAFF" stop-opacity="0.61"/>
<stop offset="0.13" stop-color="#C7EAFF" stop-opacity="0.45"/>
<stop offset="0.18" stop-color="#C7EAFF" stop-opacity="0.31"/>
<stop offset="0.23" stop-color="#C7EAFF" stop-opacity="0.2"/>
<stop offset="0.29" stop-color="#C7EAFF" stop-opacity="0.11"/>
<stop offset="0.34" stop-color="#C7EAFF" stop-opacity="0.05"/>
<stop offset="0.41" stop-color="#C7EAFF" stop-opacity="0.01"/>
<stop offset="0.51" stop-color="#C7EAFF" stop-opacity="0"/>
</radialGradient>
<radialGradient id="paint21_radial_138_1153" cx="0" cy="0" r="1" gradientUnits="userSpaceOnUse" gradientTransform="translate(1296.73 164.699) rotate(180) scale(45.0168)">
<stop stop-color="#C7EAFF"/>
<stop offset="0.04" stop-color="#C7EAFF" stop-opacity="0.79"/>
<stop offset="0.09" stop-color="#C7EAFF" stop-opacity="0.61"/>
<stop offset="0.13" stop-color="#C7EAFF" stop-opacity="0.45"/>
<stop offset="0.18" stop-color="#C7EAFF" stop-opacity="0.31"/>
<stop offset="0.23" stop-color="#C7EAFF" stop-opacity="0.2"/>
<stop offset="0.29" stop-color="#C7EAFF" stop-opacity="0.11"/>
<stop offset="0.34" stop-color="#C7EAFF" stop-opacity="0.05"/>
<stop offset="0.41" stop-color="#C7EAFF" stop-opacity="0.01"/>
<stop offset="0.51" stop-color="#C7EAFF" stop-opacity="0"/>
</radialGradient>
<radialGradient id="paint22_radial_138_1153" cx="0" cy="0" r="1" gradientUnits="userSpaceOnUse" gradientTransform="translate(1296.96 164.949) rotate(180) scale(27.5519 27.5519)">
<stop stop-color="#C7EAFF"/>
<stop offset="0.04" stop-color="#C7EAFF" stop-opacity="0.79"/>
<stop offset="0.09" stop-color="#C7EAFF" stop-opacity="0.61"/>
<stop offset="0.13" stop-color="#C7EAFF" stop-opacity="0.45"/>
<stop offset="0.18" stop-color="#C7EAFF" stop-opacity="0.31"/>
<stop offset="0.23" stop-color="#C7EAFF" stop-opacity="0.2"/>
<stop offset="0.29" stop-color="#C7EAFF" stop-opacity="0.11"/>
<stop offset="0.34" stop-color="#C7EAFF" stop-opacity="0.05"/>
<stop offset="0.41" stop-color="#C7EAFF" stop-opacity="0.01"/>
<stop offset="0.51" stop-color="#C7EAFF" stop-opacity="0"/>
</radialGradient>
<radialGradient id="paint23_radial_138_1153" cx="0" cy="0" r="1" gradientUnits="userSpaceOnUse" gradientTransform="translate(1108.28 -60.3272) rotate(180) scale(55.3728 55.3728)">
<stop stop-color="#C7EAFF"/>
<stop offset="0.04" stop-color="#C7EAFF" stop-opacity="0.79"/>
<stop offset="0.09" stop-color="#C7EAFF" stop-opacity="0.61"/>
<stop offset="0.13" stop-color="#C7EAFF" stop-opacity="0.45"/>
<stop offset="0.18" stop-color="#C7EAFF" stop-opacity="0.31"/>
<stop offset="0.23" stop-color="#C7EAFF" stop-opacity="0.2"/>
<stop offset="0.29" stop-color="#C7EAFF" stop-opacity="0.11"/>
<stop offset="0.34" stop-color="#C7EAFF" stop-opacity="0.05"/>
<stop offset="0.41" stop-color="#C7EAFF" stop-opacity="0.01"/>
<stop offset="0.51" stop-color="#C7EAFF" stop-opacity="0"/>
</radialGradient>
<radialGradient id="paint24_radial_138_1153" cx="0" cy="0" r="1" gradientUnits="userSpaceOnUse" gradientTransform="translate(1168.17 120.951) rotate(180) scale(0.960666)">
<stop stop-color="#C7EAFF"/>
<stop offset="0.04" stop-color="#C7EAFF" stop-opacity="0.79"/>
<stop offset="0.09" stop-color="#C7EAFF" stop-opacity="0.61"/>
<stop offset="0.13" stop-color="#C7EAFF" stop-opacity="0.45"/>
<stop offset="0.18" stop-color="#C7EAFF" stop-opacity="0.31"/>
<stop offset="0.23" stop-color="#C7EAFF" stop-opacity="0.2"/>
<stop offset="0.29" stop-color="#C7EAFF" stop-opacity="0.11"/>
<stop offset="0.34" stop-color="#C7EAFF" stop-opacity="0.05"/>
<stop offset="0.41" stop-color="#C7EAFF" stop-opacity="0.01"/>
<stop offset="0.51" stop-color="#C7EAFF" stop-opacity="0"/>
</radialGradient>
<radialGradient id="paint25_radial_138_1153" cx="0" cy="0" r="1" gradientUnits="userSpaceOnUse" gradientTransform="translate(963.645 207.084) rotate(180) scale(40.2135 40.2135)">
<stop stop-color="white"/>
<stop offset="0.04" stop-color="white" stop-opacity="0.79"/>
<stop offset="0.09" stop-color="white" stop-opacity="0.61"/>
<stop offset="0.13" stop-color="white" stop-opacity="0.45"/>
<stop offset="0.18" stop-color="white" stop-opacity="0.31"/>
<stop offset="0.23" stop-color="white" stop-opacity="0.2"/>
<stop offset="0.29" stop-color="white" stop-opacity="0.11"/>
<stop offset="0.34" stop-color="white" stop-opacity="0.05"/>
<stop offset="0.41" stop-color="white" stop-opacity="0.01"/>
<stop offset="0.51" stop-color="white" stop-opacity="0"/>
</radialGradient>
<radialGradient id="paint26_radial_138_1153" cx="0" cy="0" r="1" gradientUnits="userSpaceOnUse" gradientTransform="translate(1111.78 211.618) rotate(180) scale(40.2135 40.2135)">
<stop stop-color="white"/>
<stop offset="0.04" stop-color="white" stop-opacity="0.79"/>
<stop offset="0.09" stop-color="white" stop-opacity="0.61"/>
<stop offset="0.13" stop-color="white" stop-opacity="0.45"/>
<stop offset="0.18" stop-color="white" stop-opacity="0.31"/>
<stop offset="0.23" stop-color="white" stop-opacity="0.2"/>
<stop offset="0.29" stop-color="white" stop-opacity="0.11"/>
<stop offset="0.34" stop-color="white" stop-opacity="0.05"/>
<stop offset="0.41" stop-color="white" stop-opacity="0.01"/>
<stop offset="0.51" stop-color="white" stop-opacity="0"/>
</radialGradient>
<radialGradient id="paint27_radial_138_1153" cx="0" cy="0" r="1" gradientUnits="userSpaceOnUse" gradientTransform="translate(610.83 367.054) rotate(180) scale(48.2447 48.2447)">
<stop stop-color="#C7EAFF"/>
<stop offset="0.04" stop-color="#C7EAFF" stop-opacity="0.79"/>
<stop offset="0.09" stop-color="#C7EAFF" stop-opacity="0.61"/>
<stop offset="0.13" stop-color="#C7EAFF" stop-opacity="0.45"/>
<stop offset="0.18" stop-color="#C7EAFF" stop-opacity="0.31"/>
<stop offset="0.23" stop-color="#C7EAFF" stop-opacity="0.2"/>
<stop offset="0.29" stop-color="#C7EAFF" stop-opacity="0.11"/>
<stop offset="0.34" stop-color="#C7EAFF" stop-opacity="0.05"/>
<stop offset="0.41" stop-color="#C7EAFF" stop-opacity="0.01"/>
<stop offset="0.51" stop-color="#C7EAFF" stop-opacity="0"/>
</radialGradient>
<radialGradient id="paint28_radial_138_1153" cx="0" cy="0" r="1" gradientUnits="userSpaceOnUse" gradientTransform="translate(1028.89 485.831) rotate(180) scale(55.3728 55.3728)">
<stop stop-color="#C7EAFF"/>
<stop offset="0.04" stop-color="#C7EAFF" stop-opacity="0.79"/>
<stop offset="0.09" stop-color="#C7EAFF" stop-opacity="0.61"/>
<stop offset="0.13" stop-color="#C7EAFF" stop-opacity="0.45"/>
<stop offset="0.18" stop-color="#C7EAFF" stop-opacity="0.31"/>
<stop offset="0.23" stop-color="#C7EAFF" stop-opacity="0.2"/>
<stop offset="0.29" stop-color="#C7EAFF" stop-opacity="0.11"/>
<stop offset="0.34" stop-color="#C7EAFF" stop-opacity="0.05"/>
<stop offset="0.41" stop-color="#C7EAFF" stop-opacity="0.01"/>
<stop offset="0.51" stop-color="#C7EAFF" stop-opacity="0"/>
</radialGradient>
<radialGradient id="paint29_radial_138_1153" cx="0" cy="0" r="1" gradientUnits="userSpaceOnUse" gradientTransform="translate(1029.07 486.004) rotate(180) scale(42.6536 42.6536)">
<stop stop-color="#C7EAFF"/>
<stop offset="0.04" stop-color="#C7EAFF" stop-opacity="0.79"/>
<stop offset="0.09" stop-color="#C7EAFF" stop-opacity="0.61"/>
<stop offset="0.13" stop-color="#C7EAFF" stop-opacity="0.45"/>
<stop offset="0.18" stop-color="#C7EAFF" stop-opacity="0.31"/>
<stop offset="0.23" stop-color="#C7EAFF" stop-opacity="0.2"/>
<stop offset="0.29" stop-color="#C7EAFF" stop-opacity="0.11"/>
<stop offset="0.34" stop-color="#C7EAFF" stop-opacity="0.05"/>
<stop offset="0.41" stop-color="#C7EAFF" stop-opacity="0.01"/>
<stop offset="0.51" stop-color="#C7EAFF" stop-opacity="0"/>
</radialGradient>
<radialGradient id="paint30_radial_138_1153" cx="0" cy="0" r="1" gradientUnits="userSpaceOnUse" gradientTransform="translate(488.269 121.738) rotate(180) scale(55.3728 55.3728)">
<stop stop-color="#C7EAFF"/>
<stop offset="0.04" stop-color="#C7EAFF" stop-opacity="0.79"/>
<stop offset="0.09" stop-color="#C7EAFF" stop-opacity="0.61"/>
<stop offset="0.13" stop-color="#C7EAFF" stop-opacity="0.45"/>
<stop offset="0.18" stop-color="#C7EAFF" stop-opacity="0.31"/>
<stop offset="0.23" stop-color="#C7EAFF" stop-opacity="0.2"/>
<stop offset="0.29" stop-color="#C7EAFF" stop-opacity="0.11"/>
<stop offset="0.34" stop-color="#C7EAFF" stop-opacity="0.05"/>
<stop offset="0.41" stop-color="#C7EAFF" stop-opacity="0.01"/>
<stop offset="0.51" stop-color="#C7EAFF" stop-opacity="0"/>
</radialGradient>
<radialGradient id="paint31_radial_138_1153" cx="0" cy="0" r="1" gradientUnits="userSpaceOnUse" gradientTransform="translate(490.44 121.873) rotate(180) scale(45.0168 45.0169)">
<stop stop-color="#C7EAFF"/>
<stop offset="0.04" stop-color="#C7EAFF" stop-opacity="0.79"/>
<stop offset="0.09" stop-color="#C7EAFF" stop-opacity="0.61"/>
<stop offset="0.13" stop-color="#C7EAFF" stop-opacity="0.45"/>
<stop offset="0.18" stop-color="#C7EAFF" stop-opacity="0.31"/>
<stop offset="0.23" stop-color="#C7EAFF" stop-opacity="0.2"/>
<stop offset="0.29" stop-color="#C7EAFF" stop-opacity="0.11"/>
<stop offset="0.34" stop-color="#C7EAFF" stop-opacity="0.05"/>
<stop offset="0.41" stop-color="#C7EAFF" stop-opacity="0.01"/>
<stop offset="0.51" stop-color="#C7EAFF" stop-opacity="0"/>
</radialGradient>
<radialGradient id="paint32_radial_138_1153" cx="0" cy="0" r="1" gradientUnits="userSpaceOnUse" gradientTransform="translate(944.969 324.785) rotate(180) scale(45.0168)">
<stop stop-color="#C7EAFF"/>
<stop offset="0.04" stop-color="#C7EAFF" stop-opacity="0.79"/>
<stop offset="0.09" stop-color="#C7EAFF" stop-opacity="0.61"/>
<stop offset="0.13" stop-color="#C7EAFF" stop-opacity="0.45"/>
<stop offset="0.18" stop-color="#C7EAFF" stop-opacity="0.31"/>
<stop offset="0.23" stop-color="#C7EAFF" stop-opacity="0.2"/>
<stop offset="0.29" stop-color="#C7EAFF" stop-opacity="0.11"/>
<stop offset="0.34" stop-color="#C7EAFF" stop-opacity="0.05"/>
<stop offset="0.41" stop-color="#C7EAFF" stop-opacity="0.01"/>
<stop offset="0.51" stop-color="#C7EAFF" stop-opacity="0"/>
</radialGradient>
<radialGradient id="paint33_radial_138_1153" cx="0" cy="0" r="1" gradientUnits="userSpaceOnUse" gradientTransform="translate(945.219 325.035) rotate(180) scale(27.5519 27.5519)">
<stop stop-color="#C7EAFF"/>
<stop offset="0.04" stop-color="#C7EAFF" stop-opacity="0.79"/>
<stop offset="0.09" stop-color="#C7EAFF" stop-opacity="0.61"/>
<stop offset="0.13" stop-color="#C7EAFF" stop-opacity="0.45"/>
<stop offset="0.18" stop-color="#C7EAFF" stop-opacity="0.31"/>
<stop offset="0.23" stop-color="#C7EAFF" stop-opacity="0.2"/>
<stop offset="0.29" stop-color="#C7EAFF" stop-opacity="0.11"/>
<stop offset="0.34" stop-color="#C7EAFF" stop-opacity="0.05"/>
<stop offset="0.41" stop-color="#C7EAFF" stop-opacity="0.01"/>
<stop offset="0.51" stop-color="#C7EAFF" stop-opacity="0"/>
</radialGradient>
<radialGradient id="paint34_radial_138_1153" cx="0" cy="0" r="1" gradientUnits="userSpaceOnUse" gradientTransform="translate(756.544 99.7584) rotate(180) scale(55.3728)">
<stop stop-color="#C7EAFF"/>
<stop offset="0.04" stop-color="#C7EAFF" stop-opacity="0.79"/>
<stop offset="0.09" stop-color="#C7EAFF" stop-opacity="0.61"/>
<stop offset="0.13" stop-color="#C7EAFF" stop-opacity="0.45"/>
<stop offset="0.18" stop-color="#C7EAFF" stop-opacity="0.31"/>
<stop offset="0.23" stop-color="#C7EAFF" stop-opacity="0.2"/>
<stop offset="0.29" stop-color="#C7EAFF" stop-opacity="0.11"/>
<stop offset="0.34" stop-color="#C7EAFF" stop-opacity="0.05"/>
<stop offset="0.41" stop-color="#C7EAFF" stop-opacity="0.01"/>
<stop offset="0.51" stop-color="#C7EAFF" stop-opacity="0"/>
</radialGradient>
<radialGradient id="paint35_radial_138_1153" cx="0" cy="0" r="1" gradientUnits="userSpaceOnUse" gradientTransform="translate(816.432 281.036) rotate(180) scale(0.960666)">
<stop stop-color="#C7EAFF"/>
<stop offset="0.04" stop-color="#C7EAFF" stop-opacity="0.79"/>
<stop offset="0.09" stop-color="#C7EAFF" stop-opacity="0.61"/>
<stop offset="0.13" stop-color="#C7EAFF" stop-opacity="0.45"/>
<stop offset="0.18" stop-color="#C7EAFF" stop-opacity="0.31"/>
<stop offset="0.23" stop-color="#C7EAFF" stop-opacity="0.2"/>
<stop offset="0.29" stop-color="#C7EAFF" stop-opacity="0.11"/>
<stop offset="0.34" stop-color="#C7EAFF" stop-opacity="0.05"/>
<stop offset="0.41" stop-color="#C7EAFF" stop-opacity="0.01"/>
<stop offset="0.51" stop-color="#C7EAFF" stop-opacity="0"/>
</radialGradient>
<radialGradient id="paint36_radial_138_1153" cx="0" cy="0" r="1" gradientUnits="userSpaceOnUse" gradientTransform="translate(595.978 6.53516) rotate(180) scale(40.2135 40.2135)">
<stop stop-color="white"/>
<stop offset="0.04" stop-color="white" stop-opacity="0.79"/>
<stop offset="0.09" stop-color="white" stop-opacity="0.61"/>
<stop offset="0.13" stop-color="white" stop-opacity="0.45"/>
<stop offset="0.18" stop-color="white" stop-opacity="0.31"/>
<stop offset="0.23" stop-color="white" stop-opacity="0.2"/>
<stop offset="0.29" stop-color="white" stop-opacity="0.11"/>
<stop offset="0.34" stop-color="white" stop-opacity="0.05"/>
<stop offset="0.41" stop-color="white" stop-opacity="0.01"/>
<stop offset="0.51" stop-color="white" stop-opacity="0"/>
</radialGradient>
<radialGradient id="paint37_radial_138_1153" cx="0" cy="0" r="1" gradientUnits="userSpaceOnUse" gradientTransform="translate(760.041 371.704) rotate(180) scale(40.2135 40.2135)">
<stop stop-color="white"/>
<stop offset="0.04" stop-color="white" stop-opacity="0.79"/>
<stop offset="0.09" stop-color="white" stop-opacity="0.61"/>
<stop offset="0.13" stop-color="white" stop-opacity="0.45"/>
<stop offset="0.18" stop-color="white" stop-opacity="0.31"/>
<stop offset="0.23" stop-color="white" stop-opacity="0.2"/>
<stop offset="0.29" stop-color="white" stop-opacity="0.11"/>
<stop offset="0.34" stop-color="white" stop-opacity="0.05"/>
<stop offset="0.41" stop-color="white" stop-opacity="0.01"/>
<stop offset="0.51" stop-color="white" stop-opacity="0"/>
</radialGradient>
</defs>
</svg>
